<svg xmlns="http://www.w3.org/2000/svg" xmlns:xlink="http://www.w3.org/1999/xlink" id="Layer_1" x="0" y="0" version="1.1" viewBox="0 0 160 160" style="enable-background:new 0 0 160 160" xml:space="preserve"><style type="text/css">.st0{fill:#137e13}.st1{fill:#333}</style><g id="Layer_1_1_"><g><g><polygon points="152.4 14.4 121.7 14.4 121.7 23.2 137.3 23.2 90.2 70.5 63.5 43.7 13.7 93.9 13.7 106.3 63.5 56.3 90.2 83.1 143.6 29.6 143.6 45.2 152.4 45.2" class="st0"/><polygon points="121.9 131 140.2 131 140.2 45.2 121.9 63.6" class="st1"/><polygon points="67.9 131 86 131 86 91.1 67.9 72.8" class="st1"/><polygon points="40.8 131 58.9 131 58.9 73.3 40.8 91.6" class="st1"/><polygon points="94.8 131 113.1 131 113.1 72.4 94.8 90.7" class="st1"/><polygon points="13.7 131 32 131 32 100.5 13.7 118.5" class="st1"/></g></g></g></svg>