<svg xmlns="http://www.w3.org/2000/svg" xmlns:xlink="http://www.w3.org/1999/xlink" width="450" height="450" version="1.1" viewBox="0 0 450 450"><title>Group 6</title><defs><rect id="path-1" width="450" height="450" x="0" y="0" rx="1"/></defs><g id="PlayFab-icons" fill="none" fill-rule="evenodd" stroke="none" stroke-width="1"><g id="Group-6"><g id="Rectangle-+-Path-Mask"><mask id="mask-2" fill="#fff"><use xlink:href="#path-1"/></mask><use id="Mask" fill="#0078D4" xlink:href="#path-1"/><polygon id="Rectangle" fill="#006BBE" points="65.816 224.607 539.857 224.607 539.857 500.607 127.348 503.199 67.872 443.723" mask="url(#mask-2)" transform="translate(302.836340, 363.903316) rotate(45.000000) translate(-302.836340, -363.903316)"/></g><g id="Group" fill="#FFF" fill-rule="nonzero" transform="translate(79.000000, 79.000000)"><path id="🎨-Color" d="M48.6666667,0 C60.1798095,0 69.5238095,10.9013333 69.5238095,24.3333333 L69.5238095,267.666667 C69.5238095,281.098667 60.1798095,292 48.6666667,292 L20.8571429,292 C9.344,292 0,281.098667 0,267.666667 L0,24.3333333 C0,10.9013333 9.344,0 20.8571429,0 L48.6666667,0 Z M132.095238,0 C143.608381,0 152.952381,10.9013333 152.952381,24.3333333 L152.952381,267.666667 C152.952381,281.098667 143.608381,292 132.095238,292 L104.285714,292 C92.7725714,292 83.4285714,281.098667 83.4285714,267.666667 L83.4285714,24.3333333 C83.4285714,10.9013333 92.7725714,0 104.285714,0 L132.095238,0 Z M233.33581,50.6749778 L278.025714,253.760978 C280.890095,266.7712 274.174095,280.040978 263.008571,283.382756 L236.923238,291.185644 C225.757714,294.527422 214.397524,286.692089 211.533143,273.665644 L166.843238,70.6120889 C163.978857,57.5856444 170.694857,44.3320889 181.860381,40.9903111 L207.945714,33.1549778 C219.111238,29.8294222 230.471429,37.6809778 233.33581,50.6749778 Z"/></g></g></g></svg>