<svg xmlns="http://www.w3.org/2000/svg" viewBox="0 0 64 64"><defs><style>.cls-1,.cls-3,.cls-4{fill:none}.cls-2{fill:#537191;opacity:.25}.cls-3,.cls-4{stroke:#2a3548;stroke-miterlimit:10;stroke-width:4px}.cls-4{stroke:#f25c00}</style></defs><title>schema</title><g id="Layer_2" data-name="Layer 2"><g id="Layer_1-2" data-name="Layer 1"><rect width="64" height="64" class="cls-1"/><path d="M60,41H55V36l-1-3H35V32H45V8L44,5H20V29l1,3h9v1H10v8H4V57l1,3H21V44l-1-3H15V40H30v1H24V57l1,3H41V44l-1-3H35V40H50v1H44V57l1,3H61V44ZM49,48h7v5H49ZM25,12H40V25H25ZM36,53H29V48h7ZM16,53H9V48h7Z" class="cls-2"/><rect width="12" height="12" x="26" y="43" class="cls-3"/><rect width="12" height="12" x="6" y="43" class="cls-3"/><rect width="12" height="12" x="46" y="43" class="cls-3"/><polyline points="12 43 12 35 52 35 52 43" class="cls-3"/><line x1="32" x2="32" y1="43" y2="27" class="cls-3"/><rect width="20" height="20" x="22" y="7" class="cls-4"/></g></g></svg>