<svg xmlns="http://www.w3.org/2000/svg" viewBox="0 0 64 64"><defs><style>.cls-1,.cls-4{fill:none}.cls-2{opacity:.25}.cls-3{fill:#537191}.cls-4{stroke:#2a3548;stroke-miterlimit:10;stroke-width:4px}.cls-5{fill:#f25c00}</style></defs><title>explore</title><g id="Layer_2" data-name="Layer 2"><g id="Layer_1-2" data-name="Layer 1"><rect width="64" height="64" class="cls-1"/><g class="cls-2"><path d="M55.38,50.62l-10-10a13.85,13.85,0,0,0,.37-12.41,14,14,0,1,0-26.42,8.66,14,14,0,0,0,22.61,8L53.55,56.45l2.83-2.83ZM23,34a10,10,0,0,1,18.85-4.63A9.69,9.69,0,0,1,42,31a10,10,0,0,1-18.85,4.63A9.69,9.69,0,0,1,23,34Z" class="cls-3"/><path d="M28.5,34c3,.83,3.67,1.5,4.5,4.5.83-3,1.5-3.67,4.5-4.5l-1-3c-3-.83-3.67-1.5-4.5-4.5-.83,3-1.5,3.67-4.5,4.5Z" class="cls-3"/><polygon points="57 17 47 17 47 21 48 24 58 24 58 20 57 17" class="cls-3"/><polygon points="32 49 7 49 7 53 8 56 33 56 33 52 32 49" class="cls-3"/><polygon points="57 25 51 25 51 29 52 32 58 32 58 28 57 25" class="cls-3"/><polygon points="57 33 51 33 51 37 52 40 58 40 58 36 57 33" class="cls-3"/><polygon points="57 9 7 9 7 13 8 16 58 16 58 12 57 9" class="cls-3"/><polygon points="8 24 18 24 18 20 17 17 7 17 7 21 8 24" class="cls-3"/><polygon points="8 48 18 48 18 44 17 41 7 41 7 45 8 48" class="cls-3"/><polygon points="8 32 14 32 14 28 13 25 7 25 7 29 8 32" class="cls-3"/><polygon points="8 40 14 40 14 36 13 33 7 33 7 37 8 40" class="cls-3"/></g><circle cx="32" cy="31" r="12" class="cls-4"/><path d="M36.5,31a6.33,6.33,0,0,0-3.12,1.5,6.82,6.82,0,0,0-1.38,3,6.94,6.94,0,0,0-1.37-3A6.42,6.42,0,0,0,27.5,31a6.27,6.27,0,0,0,3.18-1.56A7,7,0,0,0,32,26.5a6.5,6.5,0,0,0,1.44,3.06A6.5,6.5,0,0,0,36.5,31Z" class="cls-5"/><line x1="40.93" x2="53.97" y1="39" y2="52.03" class="cls-4"/><line x1="7" x2="57" y1="11" y2="11" class="cls-4"/><line x1="7" x2="17" y1="19" y2="19" class="cls-4"/><line x1="47" x2="57" y1="19" y2="19" class="cls-4"/><line x1="7" x2="17" y1="43" y2="43" class="cls-4"/><line x1="7" x2="32" y1="51" y2="51" class="cls-4"/><line x1="7" x2="13" y1="27" y2="27" class="cls-4"/><line x1="51" x2="57" y1="27" y2="27" class="cls-4"/><line x1="7" x2="13" y1="35" y2="35" class="cls-4"/><line x1="51" x2="57" y1="35" y2="35" class="cls-4"/></g></g></svg>