<svg xmlns="http://www.w3.org/2000/svg" xmlns:xlink="http://www.w3.org/1999/xlink" id="Layer_1" x="0" y="0" version="1.1" viewBox="0 0 160 160" style="enable-background:new 0 0 160 160" xml:space="preserve"><style type="text/css">.st0{opacity:.25}.st1{fill:#537191}.st2{fill:#cc4602}.st3{fill:#f25c00}.st4{fill:#2a3548}</style><g><g class="st0"><polygon points="21.5 46.1 53.6 61 53.6 103.2 20.3 87.5" class="st1"/><polygon points="76 73.1 107 87.5 107 130.6 76 115.8" class="st1"/></g><g><polygon points="84 46.1 53.6 61 53.6 103.2 76.6 92.6 76 73.1 84.6 67.8" class="st2"/><polygon points="107 87.5 108.4 130.6 139.1 115.5 138.1 73.3" class="st3"/><g><path d="M107.4,52.3l35.1,17.5v47.7L107.4,135l-35.3-17.5V98l-19.6,9.7l-35-17.5V42.5L52.6,25l35.1,17.5V62 L107.4,52.3z M25.4,51.1v34.2L48.8,97V62.8L25.4,51.1z M75.2,44.9L52.8,33.8L30.4,44.9l22.4,11.3L75.2,44.9z M56.6,97l15.7-7.6 V69.8L80,66V51.3L56.6,63V97z M80,78.5v34.2l23.4,11.7V90.2L80,78.5z M129.8,72.3l-22.4-11.1L85,72.3l22.4,11.1L129.8,72.3z M111.3,124.3l23.4-11.7V78.5l-23.4,11.7C111.3,90.2,111.3,124.3,111.3,124.3z" class="st4"/></g></g></g></svg>