<svg xmlns="http://www.w3.org/2000/svg" xmlns:xlink="http://www.w3.org/1999/xlink" id="Layer_1" x="0" y="0" version="1.1" viewBox="0 0 160 160" style="enable-background:new 0 0 160 160" xml:space="preserve"><style type="text/css">.st0{opacity:.25;fill:#537191}.st1{fill:#2a3548}.st2{fill:#f25c00}</style><g><g><g><path d="M147.8,48.9h-16.6v16.6h16.6v8.2h-16.6v16.6h16.6v8.2h-16.6V115h16.6v8.2h-16.6v8.2H123V148h-8.2v-16.6H98.3 V148h-8.2v-16.6H73.5V148h-8.2v-16.6H48.7V148h-8.2v-16.6h-8.2v-8.2H16V115h16.6V98.5H16v-8.2h16.6V73.7H16v-8.2h16.6V48.9H16 v-8.2h16.6v-8.2h8.2V16H49v16.6h16.6V16h8.2v16.6h16.6V16h8.2v16.6H115V16h8.2v16.6h8.2v8.2H148V49L147.8,48.9L147.8,48.9z M123,123V40.8H40.8v82.5H123V123z" class="st0"/></g></g><g><g><path d="M143.8,45h-16.6v16.6h16.6v8.2h-16.6v16.6h16.6v8.2h-16.6v16.6h16.6v8.2h-16.6v8.2H119V144h-8.2v-16.6H94.3 V144h-8.2v-16.6H69.5V144h-8.2v-16.6H44.8V144h-8.2v-16.6h-8.2v-8.2H12V111h16.6V94.5H12v-8.2h16.6V69.7H12v-8.2h16.6V45H12v-8.2 h16.6v-8.2h8.2V12H45v16.6h16.6V12h8.2v16.6h16.6V12h8.2v16.6h16.6V12h8.2v16.6h8.2v8.2H144V45H143.8z M119,119V36.8H36.8v82.5 H119V119z" class="st1"/></g><path d="M77.9,108.3L51.7,93.1V62.7l26.2-15.2l26.2,15.2v30.4L77.9,108.3z M59.1,88.7l18.8,10.8l18.8-10.8V67.1 L77.9,56.3L59.1,67.1V88.7z" class="st2"/></g></g></svg>