<svg xmlns="http://www.w3.org/2000/svg" xmlns:xlink="http://www.w3.org/1999/xlink" id="Layer_1" x="0" y="0" version="1.1" viewBox="0 0 388 140" style="enable-background:new 0 0 388 140" xml:space="preserve"><style type="text/css">.st0{fill:#334154}.st1{opacity:.25;fill:url(#SVGID_1_);enable-background:new}.st2{fill:#f25c00}.st3{fill:#cc4602}.st4{fill:#b23b06}.st5{fill:#373737}.st6{fill:#ca976a}.st7{fill:#ecbf83}.st8{fill:#e6af78}.st9{fill:#1e2937}.st10{fill:#e4eaf6}.st11{fill:#444}.st12{fill:#2a3548}.st13{fill:#d7deed}</style><rect width="388" height="140" class="st0"/><radialGradient id="SVGID_1_" cx="323.714" cy="498.192" r="179.733" gradientTransform="matrix(1 0 0 1 0 -470)" gradientUnits="userSpaceOnUse"><stop offset="0" style="stop-color:#666"/><stop offset=".153" style="stop-color:#666"/><stop offset=".246" style="stop-color:#666;stop-opacity:.9276"/><stop offset=".796" style="stop-color:#666;stop-opacity:.5"/><stop offset="1" style="stop-color:#666;stop-opacity:0"/></radialGradient><polygon points="258.1 140.2 349.8 12.7 59 92.8 59 140.2" class="st1"/><g><polygon points="349.8 12.7 307.1 23.1 328.5 45" class="st2"/><polygon points="314.2 42 314.2 30.4 349.8 12.7 318.4 34.7" class="st3"/><polygon points="321.8 38.1 314.2 42 318.4 34.7" class="st4"/></g><g><g><g><path d="M56.1,122.6c0.3-5.6,4.2-10.4,9.6-11.8l16-4.3c4.6-1.2,7.7-5.4,7.7-10.1v-13h40.4v13.3 c0,4.7,3.2,8.9,7.7,10.1l14.8,4c5.4,1.5,9.2,6.2,9.6,11.8L163,140H55L56.1,122.6z" class="st5"/><path d="M109,105.7c-7.9,0-14.9-3-20.4-5.3c0.5-1.2,0.8-2.6,0.8-4v-13h40.4v13.3c0,1.1,0.2,2.3,0.5,3.3 C124.7,102.5,117.3,105.7,109,105.7z" class="st6"/><path d="M81.1,75.8l-3.2-44.2L109,18.1l31.2,13.6L137,75.8c-0.6,4.8-3.2,9.2-7.3,11.8l-10,6.5 c-6.5,4.2-14.9,4.2-21.4,0l-10-6.5C84.2,84.9,81.7,80.6,81.1,75.8z" class="st7"/><path d="M79.5,49l0.8-11.4c-0.2-1.6-0.3-2.9-0.3-4l17.1-7.5c3.8-0.2,8.9-0.4,11.9-0.5V21l31.2,10.7L137,75.8 c-0.6,4.8-3.2,9.2-7.3,11.8l-10,6.5c-3.3,2.1-7,3.2-10.7,3.2V42c-2.7-0.7-7.3,1.8-15.1,0.4c-3-0.5-5.9,0.8-6.7,3.7 C85.8,51.3,83.9,57,80.4,60l-0.3,0.2l-1.1-10C79.3,49.7,79.5,49.2,79.5,49z" class="st8"/><path d="M88.8,17.7l6.6-2.8c8.8-3.8,18.6-3.8,27.3,0l0,0l0,0l6.6,2.8c3.3,1.4,6.1,3.6,8.3,6.3 c0.2,0.2,0.4,0.4,0.5,0.7c1.7,2.3,3,4.9,3.7,7.7c0.6,2.5,0.8,5.2,0.5,7.9l-1.7,15c-0.1,0.8-0.3,1.6-0.5,2.4 c-3.7-3-5.8-18.1-7-23.5c-17-5.9-31.8,12-46.8,1c0,0-1.8,17.3-8.2,22.5c-0.2-0.8-0.4-1.6-0.5-2.4l-1.7-15 C74.8,30.6,80.1,21.5,88.8,17.7z" class="st9"/></g></g><ellipse cx="120.3" cy="60.3" class="st7" rx="6.7" ry="6.7"/><path d="M78.7,135.1v-7.4c0-0.2,0.1-0.4,0.2-0.6l1.3-2c0.5-0.7,1.5-0.7,1.9,0l1.3,2c0.1,0.2,0.2,0.4,0.2,0.6v7.4H78.7 z" class="st10"/><path d="M86,135.1v-9.5c0-0.2,0.1-0.4,0.2-0.6l1.3-2c0.5-0.7,1.5-0.7,1.9,0l1.3,2c0.1,0.2,0.2,0.4,0.2,0.6v9.5H86z" class="st10"/><path d="M101.8,140h-5v-2.6H77.2v2.6h-5v-5.1c0-1.4,1.1-2.5,2.5-2.5h24.7c1.4,0,2.5,1.1,2.5,2.5L101.8,140L101.8,140z" class="st11"/><path d="M139.1,55.8h-9.3c-1.7-3.4-5.2-5.8-9.2-5.8s-7.6,2.4-9.2,5.8h-4.6c-1.7-3.4-5.2-5.8-9.2-5.8s-7.6,2.4-9.2,5.8h-9.3v5h8.4 c0.2,5.5,4.8,10,10.2,10c5.6,0,10-4.4,10.2-10h2.5c0.2,5.5,4.8,10,10.2,10c5.6,0,10-4.4,10.2-10h8.3V55.8 C139.1,55.8,139.1,55.8,139.1,55.8z M97.6,65.7c-3,0-5.4-2.4-5.4-5.4s2.4-5.4,5.4-5.4s5.4,2.4,5.4,5.4 C102.9,63.3,100.4,65.7,97.6,65.7z M120.5,65.7c-3,0-5.4-2.4-5.4-5.4s2.4-5.4,5.4-5.4s5.4,2.4,5.4,5.4 C125.9,63.3,123.5,65.7,120.5,65.7z"/></g><g><path d="M167.7,84.9c0.7,0,1.4,0.1,2.1,0.4c0.6,0.3,1.2,0.6,1.7,1.1s0.9,1,1.1,1.7c0.3,0.6,0.4,1.3,0.4,2.1 c0,0.7-0.1,1.4-0.4,2.1c-0.3,0.6-0.6,1.2-1.1,1.7s-1,0.9-1.7,1.1c-0.6,0.3-1.3,0.4-2.1,0.4c-0.7,0-1.4-0.1-2.1-0.4 c-0.6-0.3-1.2-0.6-1.7-1.1s-0.9-1-1.1-1.7c-0.3-0.6-0.4-1.3-0.4-2.1c0-0.7,0.1-1.4,0.4-2.1c0.3-0.6,0.6-1.2,1.1-1.7s1-0.9,1.7-1.1 C166.2,85,166.9,84.9,167.7,84.9z M222.8,16.6c3.3,0,6.3,0.6,9.2,1.9c2.9,1.2,5.4,2.9,7.5,5.1s3.8,4.6,5.1,7.5 c1.2,2.9,1.9,5.9,1.9,9.2s-0.6,6.3-1.9,9.2c-1.2,2.9-2.9,5.4-5.1,7.5s-4.6,3.8-7.5,5.1c-2.9,1.2-5.9,1.9-9.2,1.9h-1 c-2.1,1.7-4.4,3-6.9,3.9s-5.2,1.4-7.9,1.4c-2,0-3.9-0.2-5.8-0.7c-1.9-0.5-3.6-1.2-5.3-2.1s-3.2-2-4.7-3.3c-1.4-1.3-2.7-2.8-3.8-4.4 H186c-2.5,0-4.9-0.5-7.2-1.4c-2.2-1-4.2-2.3-5.8-3.9c-1.7-1.7-3-3.6-3.9-5.8c-1-2.2-1.4-4.6-1.4-7.2s0.5-4.9,1.4-7.2 c1-2.2,2.3-4.2,3.9-5.8c1.7-1.7,3.6-3,5.8-3.9c2.2-1,4.6-1.4,7.2-1.4h2.8c0.9-1.6,2.1-3.1,3.4-4.4c1.3-1.3,2.8-2.4,4.3-3.3 c1.6-0.9,3.2-1.6,5-2.1c1.8-0.5,3.6-0.7,5.5-0.7c2.6,0,5.1,0.5,7.4,1.4c2.4,0.9,4.5,2.2,6.4,3.9h2L222.8,16.6L222.8,16.6z M180.8,69.1c1.1,0,2.1,0.2,3.1,0.6s1.8,1,2.5,1.7s1.3,1.5,1.7,2.5s0.6,2,0.6,3.1s-0.2,2.1-0.6,3.1c-0.4,1-1,1.8-1.7,2.5 s-1.5,1.3-2.5,1.7c-1,0.4-2,0.6-3.1,0.6s-2.1-0.2-3.1-0.6s-1.8-1-2.5-1.7s-1.3-1.5-1.7-2.5s-0.6-2-0.6-3.1s0.2-2.1,0.6-3.1 c0.4-1,1-1.8,1.7-2.5s1.5-1.3,2.5-1.7S179.7,69.1,180.8,69.1z" class="st12"/></g><g><path d="M214,31.5c0.2,0.4,0.3,0.9,0.3,1.3c0,0.4-0.1,0.8-0.2,1.2c-0.2,0.4-0.4,0.7-0.6,0.9c-0.3,0.3-0.6,0.5-0.9,0.6 c-0.4,0.2-0.7,0.2-1.2,0.2c-0.4,0-0.8-0.1-1.2-0.2c-0.4-0.2-0.7-0.4-0.9-0.6c-0.3-0.3-0.5-0.6-0.6-0.9c-0.2-0.4-0.2-0.7-0.2-1.2 c0-0.1,0-0.1,0-0.2s0-0.1,0-0.2l-2.9-1.5c-0.3,0.3-0.6,0.5-0.9,0.6c-0.4,0.1-0.7,0.2-1.1,0.2c-0.4,0-0.9-0.1-1.3-0.3l-4,4 c0.2,0.4,0.3,0.9,0.3,1.3c0,0.4-0.1,0.8-0.2,1.2c-0.2,0.4-0.4,0.7-0.6,0.9c-0.3,0.3-0.6,0.5-0.9,0.6c-0.4,0.2-0.7,0.2-1.2,0.2 c-0.4,0-0.8-0.1-1.2-0.2c-0.4-0.2-0.7-0.4-0.9-0.6c-0.3-0.3-0.5-0.6-0.6-0.9c-0.2-0.4-0.2-0.7-0.2-1.2c0-0.4,0.1-0.8,0.2-1.2 c0.2-0.4,0.4-0.7,0.6-0.9c0.3-0.3,0.6-0.5,0.9-0.6c0.4-0.2,0.7-0.2,1.2-0.2c0.4,0,0.9,0.1,1.3,0.3l4-4c-0.2-0.4-0.3-0.9-0.3-1.3 s0.1-0.8,0.2-1.2c0.2-0.4,0.4-0.7,0.6-0.9c0.3-0.3,0.6-0.5,0.9-0.6c0.4-0.2,0.7-0.2,1.2-0.2c0.4,0,0.8,0.1,1.2,0.2 c0.4,0.2,0.7,0.4,0.9,0.6c0.3,0.3,0.5,0.6,0.6,0.9c0.2,0.4,0.2,0.7,0.2,1.2c0,0.1,0,0.1,0,0.2s0,0.1,0,0.2l2.9,1.5 c0.3-0.3,0.6-0.5,0.9-0.6c0.4-0.1,0.7-0.2,1.1-0.2c0.4,0,0.9,0.1,1.3,0.3l4-4c-0.2-0.4-0.3-0.9-0.3-1.3s0.1-0.8,0.2-1.2 c0.2-0.4,0.4-0.7,0.6-0.9c0.3-0.3,0.6-0.5,0.9-0.6c0.4-0.2,0.7-0.2,1.2-0.2c0.4,0,0.8,0.1,1.2,0.2c0.4,0.2,0.7,0.4,0.9,0.6 c0.3,0.3,0.5,0.6,0.6,0.9c0.2,0.4,0.2,0.7,0.2,1.2c0,0.4-0.1,0.8-0.2,1.2c-0.2,0.4-0.4,0.7-0.6,0.9c-0.3,0.3-0.6,0.5-0.9,0.6 c-0.4,0.2-0.7,0.2-1.2,0.2c-0.4,0-0.9-0.1-1.3-0.3L214,31.5z M192.5,43.7h5.9v9.9h-5.9V43.7z M195.5,37.8c0.3,0,0.5-0.1,0.7-0.3 s0.3-0.4,0.3-0.7s-0.1-0.5-0.3-0.7s-0.4-0.3-0.7-0.3s-0.5,0.1-0.7,0.3s-0.3,0.4-0.3,0.7s0.1,0.5,0.3,0.7S195.2,37.8,195.5,37.8z M194.5,51.6h2v-5.9h-2V51.6z M200.5,35.8h5.9v17.8h-5.9V35.8z M203.4,29.9c0.3,0,0.5-0.1,0.7-0.3c0.2-0.2,0.3-0.4,0.3-0.7 c0-0.3-0.1-0.5-0.3-0.7s-0.4-0.3-0.7-0.3s-0.5,0.1-0.7,0.3c-0.2,0.2-0.3,0.4-0.3,0.7c0,0.3,0.1,0.5,0.3,0.7 C202.9,29.8,203.2,29.9,203.4,29.9z M202.4,51.6h2V37.8h-2V51.6z M208.4,39.8h5.9v13.9h-5.9V39.8z M211.4,33.8 c0.3,0,0.5-0.1,0.7-0.3s0.3-0.4,0.3-0.7s-0.1-0.5-0.3-0.7s-0.4-0.3-0.7-0.3s-0.5,0.1-0.7,0.3c-0.2,0.2-0.3,0.4-0.3,0.7 s0.1,0.5,0.3,0.7S211.1,33.8,211.4,33.8z M210.4,51.6h2v-9.9h-2V51.6z M216.3,31.8h5.9v21.8h-5.9V31.8z M219.3,23.9 c-0.3,0-0.5,0.1-0.7,0.3c-0.2,0.2-0.3,0.4-0.3,0.7c0,0.3,0.1,0.5,0.3,0.7s0.4,0.3,0.7,0.3s0.5-0.1,0.7-0.3c0.2-0.2,0.3-0.4,0.3-0.7 c0-0.3-0.1-0.5-0.3-0.7C219.8,24,219.6,23.9,219.3,23.9z M218.3,51.6h2V33.8h-2V51.6z" class="st13"/></g></svg>