<svg xmlns="http://www.w3.org/2000/svg" xmlns:xlink="http://www.w3.org/1999/xlink" id="Layer_1" x="0" y="0" version="1.1" viewBox="0 0 388 140" style="enable-background:new 0 0 388 140" xml:space="preserve"><style type="text/css">.st0{fill:#334154}.st1{opacity:.25;fill:url(#SVGID_1_);enable-background:new}.st2{fill:#f25c00}.st3{fill:#cc4602}.st4{fill:#b23b06}.st5{fill:#d7deed}.st6{fill:#cad0db}.st7{fill:#ca976a}.st8{fill:#ecbf83}.st9{fill:#e6af78}.st10{fill:#1e2937}</style><rect width="388" height="140" class="st0"/><radialGradient id="SVGID_1_" cx="323.667" cy="498" r="179.733" gradientTransform="matrix(1 0 0 1 0 -470)" gradientUnits="userSpaceOnUse"><stop offset="0" style="stop-color:#666"/><stop offset=".153" style="stop-color:#666"/><stop offset=".246" style="stop-color:#666;stop-opacity:.9276"/><stop offset=".796" style="stop-color:#666;stop-opacity:.5"/><stop offset="1" style="stop-color:#666;stop-opacity:0"/></radialGradient><polygon points="258 140 349.8 12.5 59 92.6 59 140" class="st1"/><g><polygon points="349.8 12.5 307 22.9 328.4 44.8" class="st2"/><polygon points="314.2 41.8 314.2 30.2 349.8 12.5 318.4 34.5" class="st3"/><polygon points="321.8 37.9 314.2 41.8 318.4 34.5" class="st4"/></g><g><g><path d="M55.6,126.7c0.3-5.7,4.2-10.4,9.6-11.9l16-4.3c4.5-1.2,7.7-5.3,7.7-10.1v-13h40.3v13.3 c0,4.7,3.2,8.9,7.7,10.1l14.8,4c5.4,1.4,9.3,6.3,9.6,11.9l1.1,13.2h-108L55.6,126.7z" class="st5"/><path d="M109.4,116.5l0.9,1.4v22h52.1l-1.1-13.2c-0.3-5.7-4.2-10.4-9.6-11.9l-14.8-4c-4.5-1.2-7.7-5.3-7.7-10.1v-2.1 c0,0-21.2,9.6-18.8,9.9C112.8,108.7,113.8,116.3,109.4,116.5z" class="st6"/><path d="M108.4,109.8c-7.8,0-14.9-3-20.4-5.3c0.5-1.2,0.8-2.6,0.8-4v-13h40.3v13.3c0,1.1,0.2,2.2,0.5,3.3 C124.2,106.6,116.7,109.8,108.4,109.8z" class="st7"/><path d="M80.4,80l-3.2-44.2l31.2-13.6l31.1,13.6L136.4,80c-0.6,4.8-3.2,9.2-7.3,11.8l-10,6.6 c-6.5,4.2-14.9,4.2-21.4,0l-10-6.6C83.7,89.1,81,84.8,80.4,80z" class="st8"/><path d="M78.9,53.1l0.8-11.5c-0.2-1.6-0.3-2.9-0.3-3.9l17.1-7.5c3.8-0.2,8.8-0.4,11.9-0.5v-4.6l31.1,10.8l-3.2,44.2 c-0.6,4.8-3.2,9.2-7.3,11.8l-10,6.6c-3.2,2.1-7,3.2-10.7,3.2v-51c-5-0.5-10.1-1.7-15.1-3.7c-2.8-1.1-5.9,0.4-6.7,3.3 c-1.2,5.2-3.1,11-6.7,13.9l-0.3,0.2l-1.1-10C78.7,53.8,78.9,53.3,78.9,53.1z" class="st9"/><path d="M88.2,21.8l6.5-2.8c8.7-3.8,18.6-3.8,27.3,0l0,0l0,0l6.5,2.8c3.3,1.4,6.1,3.6,8.2,6.4 c0.2,0.2,0.4,0.4,0.5,0.7c1.7,2.3,2.9,4.9,3.6,7.8c0.6,2.5,0.8,5.1,0.5,7.9l-1.7,15c-0.1,0.8-0.2,1.6-0.5,2.4 c-3.6-3-5.8-9.9-6.9-15.2c-11.6,2.1-31.8,3.7-46.7-7.4c0,0-1.7,17.4-8.1,22.6c-0.2-0.8-0.4-1.6-0.5-2.4l-1.7-15 C74.2,34.8,79.5,25.6,88.2,21.8z" class="st3"/><polygon points="108.4 16 126.8 16 122.1 20.7" class="st3"/></g><g><polygon points="227.5 76.5 146.7 76.5 137.5 140 218.3 140" class="st10"/><g><polygon points="176.6 113.7 181.3 113.7 181.9 109 177.2 109" class="st5"/><polygon points="182.2 113.7 187 113.7 187.6 109 182.9 109" class="st5"/><polygon points="183.7 103.3 183.1 108.1 187.8 108.1 188.4 103.3" class="st5"/><polygon points="177.4 108.1 182.1 108.1 182.8 103.3 178 103.3" class="st5"/></g></g></g><g><g><path d="M189.1,26.5l2.5,2.4l-9.3,9.2l9.3,9.2l-2.5,2.4l-11.8-11.6L189.1,26.5z M195.5,58.9l14-41.5h3.7l-14,41.5 H195.5z M219.7,26.5l11.8,11.6l-11.8,11.6l-2.5-2.4l9.3-9.2l-9.3-9.2L219.7,26.5z" class="st5"/></g></g></svg>