<svg xmlns="http://www.w3.org/2000/svg" xmlns:xlink="http://www.w3.org/1999/xlink" id="Layer_1" x="0" y="0" version="1.1" viewBox="0 0 160 160" style="enable-background:new 0 0 160 160" xml:space="preserve"><style type="text/css">.st0{fill:#2a3548}.st1{fill:#f25c00}.st2{fill:#1e2937}.st3{fill:#cc4602}.st4{fill:#d7deed}</style><g><g><polygon points="145.4 114.1 145.4 42.2 79.9 4.4 14.4 42.2 14.4 114.1 79.9 152" class="st0"/><polygon points="14.4 109.5 79.9 147.3 145.4 109.5 145.4 117.8 79.9 155.7 14.4 117.8" class="st1"/><polygon points="145.4 114.1 145.4 42.2 79.9 4.4 79.9 152" class="st2"/><polygon points="145.4 117.8 145.4 109.5 79.9 147.3 79.9 155.7" class="st3"/></g></g><rect width="19.8" height="10.9" x="65.9" y="54.1" class="st2"/><rect width="20.5" height="29" x="71.4" y="67.4" class="st0"/><g><path d="M93.9,66v35.3H60.6L46.9,111v-9.7H43l-3-3V66H93.9z M92.8,67.1H42.1v30h8.5v7.5l7.5-7.5h34.6V67.1z" class="st2"/></g><g><path d="M53.7,84.5c-0.5,0-0.9-0.1-1.3-0.3c-0.4-0.2-0.8-0.4-1.1-0.7c-0.3-0.3-0.6-0.7-0.7-1.1 c-0.2-0.4-0.3-0.9-0.3-1.3c0-0.5,0.1-0.9,0.3-1.3c0.2-0.4,0.4-0.8,0.7-1.1c0.3-0.3,0.7-0.6,1.1-0.7c0.4-0.2,0.9-0.3,1.3-0.3 s0.9,0.1,1.3,0.3c0.4,0.2,0.8,0.4,1.1,0.7c0.3,0.3,0.6,0.7,0.7,1.1c0.2,0.4,0.3,0.9,0.3,1.3c0,0.5-0.1,0.9-0.3,1.3 c-0.2,0.4-0.4,0.8-0.7,1.1c-0.3,0.3-0.7,0.6-1.1,0.7C54.7,84.5,54.2,84.5,53.7,84.5z" class="st4"/><path d="M67.4,84.5c-0.5,0-0.9-0.1-1.3-0.3c-0.4-0.2-0.8-0.4-1.1-0.7c-0.3-0.3-0.6-0.7-0.7-1.1 C64.1,82,64,81.6,64,81.1c0-0.5,0.1-0.9,0.3-1.3c0.2-0.4,0.4-0.8,0.7-1.1c0.3-0.3,0.7-0.6,1.1-0.7c0.4-0.2,0.9-0.3,1.3-0.3 c0.5,0,0.9,0.1,1.3,0.3c0.4,0.2,0.8,0.4,1.1,0.7c0.3,0.3,0.6,0.7,0.7,1.1c0.2,0.4,0.3,0.9,0.3,1.3c0,0.5-0.1,0.9-0.3,1.3 c-0.2,0.4-0.4,0.8-0.7,1.1c-0.3,0.3-0.7,0.6-1.1,0.7C68.4,84.5,67.9,84.5,67.4,84.5z" class="st4"/><path d="M81.2,84.5c-0.5,0-0.9-0.1-1.3-0.3c-0.4-0.2-0.8-0.4-1.1-0.7c-0.3-0.3-0.6-0.7-0.7-1.1 c-0.2-0.4-0.3-0.9-0.3-1.3c0-0.5,0.1-0.9,0.3-1.3c0.2-0.4,0.4-0.8,0.7-1.1c0.3-0.3,0.7-0.6,1.1-0.7c0.4-0.2,0.9-0.3,1.3-0.3 c0.5,0,0.9,0.1,1.3,0.3c0.4,0.2,0.8,0.4,1.1,0.7c0.3,0.3,0.6,0.7,0.7,1.1c0.2,0.4,0.3,0.9,0.3,1.3c0,0.5-0.1,0.9-0.3,1.3 c-0.2,0.4-0.4,0.8-0.7,1.1c-0.3,0.3-0.7,0.6-1.1,0.7C82.1,84.5,81.7,84.5,81.2,84.5z" class="st4"/><g><polygon points="63.6 51 63.6 65.4 67.7 65.4 67.7 55.1 114.4 55.1 114.4 81.2 107.9 81.2 107.9 88.7 100.4 81.2 93.3 81.2 93.3 85.3 98.9 85.3 111.6 98 111.6 85.3 118.5 85.3 118.5 51" class="st4"/></g><g><path d="M94.9,64v34.3H59.6L46.9,111V98.3H40V64H94.9z M90.8,68.1H44.1v26h6.5v7.5l7.5-7.5h32.6V68.1z" class="st1"/></g></g></svg>