<svg xmlns="http://www.w3.org/2000/svg" xmlns:xlink="http://www.w3.org/1999/xlink" id="Layer_1" x="0" y="0" version="1.1" viewBox="0 0 160 160" style="enable-background:new 0 0 160 160" xml:space="preserve"><style type="text/css">.st0{fill:#2a3548}.st1{fill:#f25c00}.st2{fill:#1e2937}.st3{fill:#cc4602}.st4{fill:#e4eaf6}</style><g><polygon points="145.4 116 145.4 42.2 79.9 4.4 14.4 42.2 14.4 116 79.9 153.8" class="st0"/><polygon points="14.4 109.5 79.9 147.3 145.4 109.5 145.4 117.8 79.9 155.7 14.4 117.8" class="st1"/><polygon points="145.4 116 145.4 42.2 79.9 4.4 79.9 153.8" class="st2"/><polygon points="145.4 117.8 145.4 109.5 79.9 147.3 79.9 155.7" class="st3"/></g><polygon points="81.5 58.3 62.6 67.5 62.6 93.8 76.9 87.2 76.5 75 81.9 71.8" class="st3"/><polygon points="95.8 84 96.6 110.8 115.6 101.4 115 75.2" class="st1"/><polygon points="60.5 47.9 43.6 57.3 63 66.8 81.3 57.4" class="st2"/><polygon points="76.5 75 76.1 100.4 95.6 109.9 96.3 85.4" class="st0"/><g><path d="M96,62.2L117.8,73v29.6L96,113.5l-21.9-10.9V90.5l-12.1,6L40.3,85.7V56L62,45.2L83.8,56v12.1L96,62.2z M45.1,61.4v21.3l14.5,7.3V68.7L45.1,61.4z M76,57.5l-13.9-6.9l-13.9,6.9l13.9,7L76,57.5z M64.5,89.9l9.8-4.8V73l4.8-2.4v-9.1 l-14.5,7.3C64.5,68.8,64.5,89.9,64.5,89.9z M79,78.4v21.3l14.5,7.3V85.7L79,78.4z M109.9,74.5L96,67.7l-13.9,6.9L96,81.4 L109.9,74.5z M98.4,106.9l14.5-7.3V78.4l-14.5,7.3V106.9z" class="st4"/></g></svg>