<svg xmlns="http://www.w3.org/2000/svg" xmlns:xlink="http://www.w3.org/1999/xlink" id="Layer_1" x="0" y="0" version="1.1" viewBox="0 0 160 160" style="enable-background:new 0 0 160 160" xml:space="preserve"><style type="text/css">.st0{fill:#2a3548}.st1{fill:#f25c00}.st2{fill:#1e2937}.st3{fill:#cc4602}.st4{fill:#e4eaf6}</style><g><g><polygon points="145.4 114.1 145.4 42.2 79.9 4.4 14.4 42.2 14.4 114.1 79.9 152" class="st0"/><polygon points="14.4 109.5 79.9 147.3 145.4 109.5 145.4 117.8 79.9 155.7 14.4 117.8" class="st1"/><polygon points="145.4 114.1 145.4 42.2 79.9 4.4 79.9 152" class="st2"/><polygon points="145.4 117.8 145.4 109.5 79.9 147.3 79.9 155.7" class="st3"/></g></g><g><polygon points="106.9 111.6 117.8 111.6 117.8 60.7 106.9 71.6" class="st2"/><polygon points="74.8 111.6 85.5 111.6 85.5 88 74.8 77.1" class="st2"/><polygon points="58.6 111.6 69.4 111.6 69.4 77.3 58.6 88.2" class="st2"/><polygon points="90.8 111.6 101.6 111.6 101.6 76.8 90.8 87.7" class="st2"/><polygon points="42.5 111.6 53.4 111.6 53.4 93.5 42.5 104.2" class="st2"/></g><g><polygon points="121.3 38.7 103 38.7 103 44 112.3 44 84.3 72 68.4 56.1 38.8 85.8 38.8 93.2 68.4 63.6 84.3 79.5 116 47.7 116 57 121.3 57" class="st1"/><polygon points="103.1 107.8 114 107.8 114 57 103.1 67.8" class="st4"/><polygon points="71 107.8 81.8 107.8 81.8 84.2 71 73.3" class="st4"/><polygon points="54.9 107.8 65.6 107.8 65.6 73.6 54.9 84.5" class="st4"/><polygon points="87 107.8 97.9 107.8 97.9 73.1 87 84" class="st4"/><polygon points="38.8 107.8 49.6 107.8 49.6 89.7 38.8 100.5" class="st4"/></g></svg>