<svg xmlns="http://www.w3.org/2000/svg" xmlns:xlink="http://www.w3.org/1999/xlink" id="Layer_1" x="0" y="0" version="1.1" viewBox="0 0 388 140" style="enable-background:new 0 0 388 140" xml:space="preserve"><style type="text/css">.st0{fill:#334154}.st1{fill:#2a3548}.st2{fill:#f25c00}.st3{fill:#1e2937}.st4{fill:#cc4602}.st5{fill:#d7deed}.st6{opacity:.3}.st7{opacity:.5}.st8{fill:#e4eaf6}.st9{opacity:5.000000e-02}.st10{opacity:.1}.st11{clip-path:url(#SVGID_2_)}.st12{opacity:.25}.st13{opacity:.75;fill:#f25c00;enable-background:new}</style><rect width="388" height="140" class="st0"/><g><g><polygon points="133 98.7 133 41.3 83 12.5 33 41.3 33 98.7 83 127.5" class="st1"/><polygon points="33 92.4 83 121.2 133 92.4 133 98.7 83 127.5 33 98.7" class="st2"/><polygon points="133 98.7 133 41.3 83 12.5 83 127.5" class="st3"/><polygon points="133 98.7 133 92.4 83 121.2 83 127.5" class="st4"/></g><polygon points="89.2 73.6 78.1 73.5 78.2 93.3 85.6 80.7 107.9 80.7 107.8 69.2 94.1 69.1" class="st3"/><polygon points="85.2 80.4 78.5 94 104.7 94.3 111.3 80.8" class="st1"/><polygon points="62.2 49.6 102.9 49.6 102.9 57.8 62.8 57.8" class="st3"/><g><g><rect width="2.6" height="2.6" x="77.2" y="61.9" class="st5"/><rect width="2.6" height="2.6" x="77.2" y="67.3" class="st5"/><rect width="2.6" height="2.6" x="69.2" y="78.1" class="st5"/><rect width="2.6" height="2.6" x="69.2" y="67.3" class="st5"/><rect width="2.6" height="2.6" x="69.2" y="72.7" class="st5"/><rect width="2.6" height="2.6" x="85.4" y="67.3" class="st5"/><path d="M63.7,83.5V59.2h38v9.1h2.6v-20h-8.1v-2.6h-2.6v2.6H71.9v-2.6h-2.6v2.6h-8.1v37.8h16.1v-2.6H63.7z M63.7,51.1h5.5v2.6h2.6v-2.6h21.7v2.6h2.6v-2.6h5.5v5.4H63.7V51.1z" class="st5"/><rect width="2.6" height="2.6" x="93.5" y="61.9" class="st5"/><rect width="2.6" height="2.6" x="85.4" y="61.9" class="st5"/></g><g><path d="M109.3,79.3h4.2l-8.1,16.2H76.6V72.4H89l4.6-4.6h15.6C109.3,67.7,109.3,79.3,109.3,79.3z M79.4,75v15.4 l5.5-11.1h21.9v-9H95L90.4,75H79.4z M103.6,93l5.6-11.1h-23L80.9,93H103.6z" class="st2"/></g></g></g><g><g class="st6"><g class="st7"><polygon points="182.5 42.6 165.5 54.3 155.2 110.3 205.7 119.6 218.7 49.3" class="st8"/></g><polygon points="182.5 42.6 179.9 56.9 165.5 54.3" class="st8"/></g><g><g><g><rect width="6" height="6" x="178" y="69.8" class="st5" transform="matrix(0.1811 -0.9835 0.9835 0.1811 76.6448 237.629)"/><rect width="6" height="6" x="170.8" y="68.4" class="st5" transform="matrix(0.1811 -0.9835 0.9835 0.1811 72.1022 229.4141)"/><rect width="6" height="6" x="192.6" y="72.4" class="st5" transform="matrix(0.1811 -0.9835 0.9835 0.1811 86.0244 254.1365)"/><rect width="6" height="6" x="185.3" y="71.1" class="st2" transform="matrix(0.1811 -0.9835 0.9835 0.1811 81.3382 245.8846)"/><rect width="6" height="6" x="199.9" y="73.8" class="st5" transform="matrix(0.1811 -0.9835 0.9835 0.1811 90.6202 262.4418)"/><rect width="6" height="6" x="179.3" y="62.7" class="st5" transform="matrix(0.1811 -0.9835 0.9835 0.1811 84.6918 233.0993)"/><rect width="6" height="6" x="172.1" y="61.3" class="st5" transform="matrix(0.1811 -0.9835 0.9835 0.1811 80.149 224.8843)"/><rect width="6" height="6" x="193.9" y="65.4" class="st5" transform="matrix(0.1811 -0.9835 0.9835 0.1811 93.981 249.6601)"/><rect width="6" height="6" x="186.6" y="64" class="st5" transform="matrix(0.1811 -0.9835 0.9835 0.1811 89.3852 241.3548)"/><rect width="6" height="6" x="201.2" y="66.7" class="st5" transform="matrix(0.1811 -0.9835 0.9835 0.1811 98.6672 257.912)"/><rect width="6" height="6" x="176.7" y="76.9" class="st5" transform="matrix(0.1811 -0.9835 0.9835 0.1811 68.5877 242.1797)"/><rect width="6" height="6" x="169.5" y="75.6" class="st5" transform="matrix(0.1811 -0.9835 0.9835 0.1811 63.9545 234.018)"/><rect width="6" height="6" x="191.3" y="79.6" class="st5" transform="matrix(0.1811 -0.9835 0.9835 0.1811 77.8769 258.7405)"/><rect width="6" height="6" x="184" y="78.3" class="st5" transform="matrix(0.1811 -0.9835 0.9835 0.1811 73.1907 250.4884)"/><rect width="6" height="6" x="198.5" y="80.9" class="st5" transform="matrix(0.1811 -0.9835 0.9835 0.1811 82.5098 266.9023)"/><rect width="6" height="6" x="175.4" y="84.2" class="st5" transform="matrix(0.1811 -0.9835 0.9835 0.1811 60.3356 246.8661)"/><rect width="6" height="6" x="168.1" y="82.8" class="st5" transform="matrix(0.1811 -0.9835 0.9835 0.1811 55.7397 238.5607)"/><rect width="6" height="6" x="189.9" y="86.9" class="st5" transform="matrix(0.1811 -0.9835 0.9835 0.1811 69.5716 263.3365)"/><rect width="6" height="6" x="182.7" y="85.5" class="st5" transform="matrix(0.1811 -0.9835 0.9835 0.1811 65.0289 255.1214)"/></g></g></g></g><g class="st9"><g><path d="M367.6,22.7L367.6,22.7c-0.6-5.6-5.4-10-11.1-10s-10.4,4.3-11,9.8c-1.6-1.5-3.8-2.5-6.2-2.5 c-4.2,0-7.7,2.9-8.7,6.8c-0.6-0.2-1.3-0.3-2-0.3c-3.9,0-7.1,3.2-7.1,7.1s3.2,7.1,7.1,7.1c2.7,0,35.2,0,39.1,0c5,0,9-4,9-9 C376.6,26.8,372.6,22.7,367.6,22.7z" class="st8"/></g></g><g class="st10"><g><path d="M219.2,18.2L219.2,18.2c0.5-5,4.7-8.9,9.8-8.9c5,0,9.2,3.8,9.8,8.7c1.4-1.4,3.4-2.2,5.5-2.2 c3.7,0,6.8,2.5,7.7,6c0.6-0.2,1.1-0.2,1.8-0.2c3.5,0,6.3,2.8,6.3,6.3s-2.8,6.3-6.3,6.3c-2.4,0-31.1,0-34.6,0c-4.4,0-8-3.6-8-8 S214.8,18.2,219.2,18.2z" class="st8"/></g><g class="st7"><g><path d="M211.1,18.5L211.1,18.5c-0.4-3.5-3.3-6.2-6.9-6.2c-3.5,0-6.4,2.7-6.8,6.1c-1-1-2.4-1.5-3.8-1.5 c-2.6,0-4.8,1.8-5.4,4.2c-0.4-0.1-0.8-0.2-1.2-0.2c-2.4,0-4.4,2-4.4,4.4s2,4.4,4.4,4.4c1.7,0,21.7,0,24.2,0 c3.1,0,5.6-2.5,5.6-5.6C216.7,21,214.2,18.5,211.1,18.5z" class="st8"/></g></g></g><g><g><g><defs><rect id="SVGID_1_" width="172" height="116" x="213" y="24"/></defs><clipPath id="SVGID_2_"><use xlink:href="#SVGID_1_" style="overflow:visible"/></clipPath><g class="st11"><g class="st9"><g class="st7"><polygon points="290.1 76.7 275.7 70.7 290.1 56.1 304.6 62.1" class="st8"/><polygon points="307.1 83.9 292.7 77.9 307.1 63.4 321.5 69.5" class="st8"/><polygon points="323.9 90.9 309.5 84.9 323.9 70.5 338.3 76.5" class="st8"/><polygon points="340.9 97.8 326.4 91.8 340.9 77.3 355.3 83.3" class="st8"/><polygon points="357.9 104.6 343.4 98.7 357.9 84.1 372.3 90.1" class="st8"/><polygon points="273.7 93.1 259.2 87.2 273.7 72.7 288.1 78.7" class="st8"/><polygon points="290.7 100.5 276.2 94.4 290.7 80 305.1 85.9" class="st8"/><polygon points="307.4 107.5 293 101.5 307.4 87 321.9 92.9" class="st8"/><polygon points="324.4 114.3 310 108.3 324.4 93.8 338.9 99.9" class="st8"/><polygon points="341.4 121.1 327 115.1 341.4 100.7 355.8 106.7" class="st8"/><polygon points="257.9 109.7 243.4 103.8 257.9 89.2 272.3 95.2" class="st8"/><polygon points="274.8 117 260.4 111 274.8 96.6 289.3 102.5" class="st8"/><polygon points="291.6 124 277.2 118 291.6 103.6 306.1 109.6" class="st8"/><polygon points="308.6 130.9 294.2 124.8 308.6 110.4 323 116.4" class="st8"/><polygon points="325.6 137.7 311.2 131.8 325.6 117.2 340 123.2" class="st8"/><polygon points="241.8 126.4 227.3 120.3 241.8 105.9 256.2 111.8" class="st8"/><polygon points="258.8 133.6 244.3 127.6 258.8 113.1 273.2 119.1" class="st2"/><polygon points="275.5 140.6 261.1 134.7 275.5 120.1 290 126.2" class="st8"/><polygon points="292.5 147.4 278.1 141.5 292.5 127 307 133" class="st8"/><polygon points="309.5 154.2 295.1 148.3 309.5 133.8 323.9 139.8" class="st8"/></g></g><g class="st10"><g class="st7"><polygon points="290.1 69.1 275.7 63 290.1 48.6 304.6 54.6" class="st8"/><polygon points="307.1 76.3 292.7 70.4 307.1 55.8 321.5 61.8" class="st8"/><polygon points="323.9 83.3 309.5 77.4 323.9 62.8 338.3 68.9" class="st8"/><polygon points="340.9 90.2 326.4 84.2 340.9 69.8 355.3 75.7" class="st2"/><polygon points="357.9 97.1 343.4 91 357.9 76.6 372.3 82.5" class="st8"/><polygon points="273.7 85.6 259.2 79.6 273.7 65.1 288.1 71.1" class="st8"/><polygon points="290.7 92.8 276.2 86.8 290.7 72.4 305.1 78.4" class="st8"/><polygon points="307.4 99.9 293 93.9 307.4 79.4 321.9 85.4" class="st8"/><polygon points="324.4 106.7 310 100.8 324.4 86.2 338.9 92.2" class="st8"/><polygon points="341.4 113.5 327 107.6 341.4 93 355.8 99.1" class="st8"/><polygon points="257.9 102.2 243.4 96.1 257.9 81.7 272.3 87.6" class="st8"/><polygon points="274.8 109.4 260.4 103.5 274.8 88.9 289.3 94.9" class="st8"/><polygon points="291.6 116.4 277.2 110.5 291.6 95.9 306.1 102" class="st8"/><polygon points="308.6 123.2 294.2 117.3 308.6 102.8 323 108.8" class="st8"/><polygon points="325.6 130.2 311.2 124.1 325.6 109.7 340 115.6" class="st8"/><polygon points="241.8 118.7 227.3 112.7 241.8 98.3 256.2 104.3" class="st8"/><polygon points="258.8 126 244.3 120 258.8 105.5 273.2 111.5" class="st8"/><polygon points="275.5 133.1 261.1 127.1 275.5 112.6 290 118.5" class="st8"/><polygon points="292.5 139.9 278.1 133.9 292.5 119.4 307 125.3" class="st8"/><polygon points="309.5 146.7 295.1 140.7 309.5 126.3 323.9 132.2" class="st8"/></g></g><g class="st12"><g class="st7"><polygon points="290.1 61.4 275.7 55.5 290.1 41 304.6 47" class="st8"/><polygon points="307.1 68.8 292.7 62.7 307.1 48.3 321.5 54.2" class="st8"/><polygon points="323.9 75.8 309.5 69.8 323.9 55.3 338.3 61.2" class="st8"/><polygon points="340.9 82.6 326.4 76.6 340.9 62.1 355.3 68.2" class="st8"/><polygon points="357.9 89.4 343.4 83.4 357.9 69 372.3 75" class="st8"/><polygon points="273.7 78 259.2 72 273.7 57.5 288.1 63.5" class="st8"/><polygon points="290.7 85.2 276.2 79.3 290.7 64.7 305.1 70.8" class="st8"/><polygon points="307.4 92.3 293 86.3 307.4 71.9 321.9 77.8" class="st8"/><polygon points="324.4 99.2 310 93.1 324.4 78.7 338.9 84.6" class="st8"/><polygon points="341.4 106 327 100 341.4 85.5 355.8 91.4" class="st8"/><polygon points="257.9 94.5 243.4 88.6 257.9 74.1 272.3 80.1" class="st8"/><polygon points="274.8 101.9 260.4 95.8 274.8 81.4 289.3 87.3" class="st2"/><polygon points="291.6 108.9 277.2 102.9 291.6 88.4 306.1 94.3" class="st8"/><polygon points="308.6 115.7 294.2 109.7 308.6 95.2 323 101.3" class="st8"/><polygon points="325.6 122.5 311.2 116.5 325.6 102.1 340 108.1" class="st8"/><polygon points="241.8 111.1 227.3 105.2 241.8 90.6 256.2 96.7" class="st8"/><polygon points="258.8 118.4 244.3 112.4 258.8 98 273.2 103.9" class="st8"/><polygon points="275.5 125.4 261.1 119.4 275.5 105 290 111" class="st8"/><polygon points="292.5 132.3 278.1 126.3 292.5 111.8 307 117.8" class="st8"/><polygon points="309.5 139.1 295.1 133.2 309.5 118.6 323.9 124.6" class="st8"/></g></g><g class="st7"><g class="st7"><polygon points="290.1 53.9 275.7 47.9 290.1 33.4 304.6 39.4" class="st8"/><polygon points="307.1 61.1 292.7 55.1 307.1 40.7 321.5 46.7" class="st8"/><polygon points="323.9 68.2 309.5 62.2 323.9 47.7 338.3 53.7" class="st8"/><polygon points="340.9 75 326.4 69.1 340.9 54.5 355.3 60.5" class="st8"/><polygon points="357.9 81.8 343.4 75.9 357.9 61.3 372.3 67.3" class="st8"/><polygon points="273.7 70.4 259.2 64.4 273.7 49.9 288.1 55.9" class="st8"/><polygon points="290.7 77.7 276.2 71.7 290.7 57.2 305.1 63.1" class="st8"/><polygon points="307.4 84.7 293 78.7 307.4 64.2 321.9 70.3" class="st2"/><polygon points="324.4 91.5 310 85.5 324.4 71.1 338.9 77.1" class="st8"/><polygon points="341.4 98.4 327 92.4 341.4 77.9 355.8 83.9" class="st8"/><polygon points="257.9 87 243.4 81 257.9 66.5 272.3 72.5" class="st8"/><polygon points="274.8 94.2 260.4 88.2 274.8 73.8 289.3 79.8" class="st8"/><polygon points="291.6 101.3 277.2 95.2 291.6 80.8 306.1 86.8" class="st8"/><polygon points="308.6 108.1 294.2 102.2 308.6 87.6 323 93.6" class="st8"/><polygon points="325.6 114.9 311.2 109 325.6 94.4 340 100.5" class="st8"/><polygon points="241.8 103.6 227.3 97.6 241.8 83.1 256.2 89" class="st8"/><polygon points="258.8 110.8 244.3 104.9 258.8 90.3 273.2 96.3" class="st8"/><polygon points="275.5 117.8 261.1 111.9 275.5 97.4 290 103.4" class="st8"/><polygon points="292.5 124.6 278.1 118.7 292.5 104.2 307 110.2" class="st8"/><polygon points="309.5 131.6 295.1 125.6 309.5 111.1 323.9 117" class="st8"/></g></g><polygon points="307.4 84.7 293 78.7 307.4 64.2 321.9 70.3" class="st13"/></g></g></g></g></svg>